<svg version="1.1" xmlns="http://www.w3.org/2000/svg" viewBox="0 0 1011.9999999999998 693.6666666666667" width="1011.9999999999998"
     height="693.6666666666667">
  <!-- svg-source:excalidraw -->

  <defs>
    <style class="style-fonts">
      @font-face {
      font-family: "Virgil";
      src: url("https://unpkg.com/@excalidraw/excalidraw@0.14.2/dist/excalidraw-assets/Virgil.woff2");
      }
      @font-face {
      font-family: "Cascadia";
      src: url("https://unpkg.com/@excalidraw/excalidraw@0.14.2/dist/excalidraw-assets/Cascadia.woff2");
      }
    </style>
  </defs>
  <g fill="#eee" stroke-linecap="round" transform="translate(47.16666666666697 110.66666666666697) rotate(0 100.69333333333333 59)">
    <path
      d="M29.5 0 M29.5 0 C67.29 0, 105.08 0, 171.89 0 M29.5 0 C83.83 0, 138.16 0, 171.89 0 M171.89 0 C191.55 0, 201.39 9.83, 201.39 29.5 M171.89 0 C191.55 0, 201.39 9.83, 201.39 29.5 M201.39 29.5 C201.39 47.44, 201.39 65.39, 201.39 88.5 M201.39 29.5 C201.39 46.04, 201.39 62.57, 201.39 88.5 M201.39 88.5 C201.39 108.17, 191.55 118, 171.89 118 M201.39 88.5 C201.39 108.17, 191.55 118, 171.89 118 M171.89 118 C136.98 118, 102.08 118, 29.5 118 M171.89 118 C143.35 118, 114.82 118, 29.5 118 M29.5 118 C9.83 118, 0 108.17, 0 88.5 M29.5 118 C9.83 118, 0 108.17, 0 88.5 M0 88.5 C0 70.73, 0 52.96, 0 29.5 M0 88.5 C0 72.21, 0 55.92, 0 29.5 M0 29.5 C0 9.83, 9.83 0, 29.5 0 M0 29.5 C0 9.83, 9.83 0, 29.5 0"
      stroke="#1e1e1e" stroke-width="1" fill="none"></path>
  </g>
  <g fill="#eee" stroke-linecap="round" transform="translate(775.8333333333333 533.3333333333338) rotate(0 100.69333333333338 59)">
    <path
      d="M29.5 0 M29.5 0 C67.47 0, 105.44 0, 171.89 0 M29.5 0 C74.53 0, 119.56 0, 171.89 0 M171.89 0 C191.55 0, 201.39 9.83, 201.39 29.5 M171.89 0 C191.55 0, 201.39 9.83, 201.39 29.5 M201.39 29.5 C201.39 45.12, 201.39 60.73, 201.39 88.5 M201.39 29.5 C201.39 42.33, 201.39 55.15, 201.39 88.5 M201.39 88.5 C201.39 108.17, 191.55 118, 171.89 118 M201.39 88.5 C201.39 108.17, 191.55 118, 171.89 118 M171.89 118 C125.78 118, 79.68 118, 29.5 118 M171.89 118 C138.23 118, 104.58 118, 29.5 118 M29.5 118 C9.83 118, 0 108.17, 0 88.5 M29.5 118 C9.83 118, 0 108.17, 0 88.5 M0 88.5 C0 72.2, 0 55.9, 0 29.5 M0 88.5 C0 70.28, 0 52.06, 0 29.5 M0 29.5 C0 9.83, 9.83 0, 29.5 0 M0 29.5 C0 9.83, 9.83 0, 29.5 0"
      stroke="#1e1e1e" stroke-width="1" fill="none"></path>
  </g>
  <g fill="#eee" stroke-linecap="round" transform="translate(775.5 325.0000000000002) rotate(0 100.69333333333327 59)">
    <path
      d="M29.5 0 M29.5 0 C66.63 0, 103.76 0, 171.89 0 M29.5 0 C73.9 0, 118.29 0, 171.89 0 M171.89 0 C191.55 0, 201.39 9.83, 201.39 29.5 M171.89 0 C191.55 0, 201.39 9.83, 201.39 29.5 M201.39 29.5 C201.39 52.95, 201.39 76.41, 201.39 88.5 M201.39 29.5 C201.39 42.51, 201.39 55.51, 201.39 88.5 M201.39 88.5 C201.39 108.17, 191.55 118, 171.89 118 M201.39 88.5 C201.39 108.17, 191.55 118, 171.89 118 M171.89 118 C118.53 118, 65.17 118, 29.5 118 M171.89 118 C122.24 118, 72.6 118, 29.5 118 M29.5 118 C9.83 118, 0 108.17, 0 88.5 M29.5 118 C9.83 118, 0 108.17, 0 88.5 M0 88.5 C0 74.47, 0 60.44, 0 29.5 M0 88.5 C0 65.71, 0 42.92, 0 29.5 M0 29.5 C0 9.83, 9.83 0, 29.5 0 M0 29.5 C0 9.83, 9.83 0, 29.5 0"
      stroke="#1e1e1e" stroke-width="1" fill="none"></path>
  </g>
  <g stroke-linecap="round" transform="translate(419.16666666666674 208.66666666666697) rotate(0 100.69333333333338 59)">
    <path
      d="M29.5 0 M29.5 0 C78.38 0, 127.26 0, 171.89 0 M29.5 0 C78.53 0, 127.56 0, 171.89 0 M171.89 0 C191.55 0, 201.39 9.83, 201.39 29.5 M171.89 0 C191.55 0, 201.39 9.83, 201.39 29.5 M201.39 29.5 C201.39 46.22, 201.39 62.93, 201.39 88.5 M201.39 29.5 C201.39 47.81, 201.39 66.13, 201.39 88.5 M201.39 88.5 C201.39 108.17, 191.55 118, 171.89 118 M201.39 88.5 C201.39 108.17, 191.55 118, 171.89 118 M171.89 118 C119.43 118, 66.97 118, 29.5 118 M171.89 118 C127.56 118, 83.24 118, 29.5 118 M29.5 118 C9.83 118, 0 108.17, 0 88.5 M29.5 118 C9.83 118, 0 108.17, 0 88.5 M0 88.5 C0 75.72, 0 62.94, 0 29.5 M0 88.5 C0 75.64, 0 62.78, 0 29.5 M0 29.5 C0 9.83, 9.83 0, 29.5 0 M0 29.5 C0 9.83, 9.83 0, 29.5 0"
      stroke="#1e1e1e" stroke-width="1" fill="none"></path>
  </g>
  <g stroke-linecap="round" transform="translate(768.5000000000002 136.3333333333336) rotate(0 100.69333333333338 59)">
    <path
      d="M29.5 0 M29.5 0 C82.72 0, 135.94 0, 171.89 0 M29.5 0 C81.83 0, 134.16 0, 171.89 0 M171.89 0 C191.55 0, 201.39 9.83, 201.39 29.5 M171.89 0 C191.55 0, 201.39 9.83, 201.39 29.5 M201.39 29.5 C201.39 42.41, 201.39 55.33, 201.39 88.5 M201.39 29.5 C201.39 45.99, 201.39 62.47, 201.39 88.5 M201.39 88.5 C201.39 108.17, 191.55 118, 171.89 118 M201.39 88.5 C201.39 108.17, 191.55 118, 171.89 118 M171.89 118 C138.13 118, 104.38 118, 29.5 118 M171.89 118 C130.02 118, 88.16 118, 29.5 118 M29.5 118 C9.83 118, 0 108.17, 0 88.5 M29.5 118 C9.83 118, 0 108.17, 0 88.5 M0 88.5 C0 67.15, 0 45.8, 0 29.5 M0 88.5 C0 74.14, 0 59.78, 0 29.5 M0 29.5 C0 9.83, 9.83 0, 29.5 0 M0 29.5 C0 9.83, 9.83 0, 29.5 0"
      stroke="#1e1e1e" stroke-width="1" fill="none"></path>
  </g>
  <g transform="translate(131.16666666666708 156.66666666666697) rotate(0 12.5 12)">
    <text x="0" y="19" font-family="Cascadia, Segoe UI Emoji" font-size="20px" fill="#1e1e1e" text-anchor="start" style="white-space: pre;"
          direction="ltr">UI
    </text>
  </g>
  <g transform="translate(795.4999999999998 565.3333333333335) rotate(0 88.5 24)">
    <text x="88.5" y="19" font-family="Cascadia, Segoe UI Emoji" font-size="20px" fill="#1e1e1e" text-anchor="middle"
          style="white-space: pre;" direction="ltr">Server Manager
    </text>
    <text x="88.5" y="43" font-family="Cascadia, Segoe UI Emoji" font-size="20px" fill="#1e1e1e" text-anchor="middle"
          style="white-space: pre;" direction="ltr">(lambda fn)
    </text>
  </g>
  <g transform="translate(856.8333333333335 375.3333333333336) rotate(0 18.5 12)">
    <text x="18.5" y="19" font-family="Cascadia, Segoe UI Emoji" font-size="20px" fill="#1e1e1e" text-anchor="middle"
          style="white-space: pre;" direction="ltr">EC2
    </text>
  </g>
  <g transform="translate(475.83333333333326 245.3333333333336) rotate(0 48 24)">
    <text x="0" y="19" font-family="Cascadia, Segoe UI Emoji" font-size="20px" fill="#1e1e1e" text-anchor="start" style="white-space: pre;"
          direction="ltr">Heroicus
    </text>
    <text x="0" y="43" font-family="Cascadia, Segoe UI Emoji" font-size="20px" fill="#1e1e1e" text-anchor="start" style="white-space: pre;"
          direction="ltr">Contract
    </text>
  </g>
  <g fill="#eee" transform="translate(824.1666666666667 170.66666666666697) rotate(0 53 24)">
    <text x="53" y="19" font-family="Cascadia, Segoe UI Emoji" font-size="20px" fill="#eee" text-anchor="middle"
          style="white-space: pre;" direction="ltr">Heroicus
    </text>
    <text x="53" y="43" font-family="Cascadia, Segoe UI Emoji" font-size="20px" fill="#eee" text-anchor="middle"
          style="white-space: pre;" direction="ltr">API
    </text>
  </g>
  <g stroke-linecap="round" transform="translate(10 10) rotate(0 133.99999999999994 329.83333333333326)">
    <path
      d="M32 0 M32 0 C108.36 0.89, 181.97 -0.35, 236 0 M236 0 C258.79 1.6, 269.93 9.97, 268 32 M268 32 C265.92 192.33, 266.81 350.81, 268 627.67 M268 627.67 C266.89 649, 256.3 658.95, 236 659.67 M236 659.67 C176.96 660.49, 116.63 660.37, 32 659.67 M32 659.67 C10.78 660.95, 0.87 649.25, 0 627.67 M0 627.67 C0.53 487.88, 1.35 347.28, 0 32 M0 32 C1.35 9.08, 8.87 -1.15, 32 0"
      stroke="#000000" stroke-width="1.5" fill="none" stroke-dasharray="1.5 7"></path>
  </g>
  <g stroke-linecap="round" transform="translate(384 16) rotate(0 133.9999999999999 328.1666666666665)">
    <path
      d="M32 0 M32 0 C77.86 0.73, 122.34 -0.85, 236 0 M236 0 C257.29 -0.44, 267.63 9.2, 268 32 M268 32 C265.96 205.24, 266.92 378.2, 268 624.33 M268 624.33 C268.25 645.72, 256.18 658.26, 236 656.33 M236 656.33 C154.19 659.29, 75.74 656.24, 32 656.33 M32 656.33 C10.42 654.84, -1.89 645.67, 0 624.33 M0 624.33 C-0.81 419.54, -0.46 214.23, 0 32 M0 32 C-0.38 9.13, 8.74 -1.69, 32 0"
      stroke="#000000" stroke-width="1.5" fill="none" stroke-dasharray="1.5 7"></path>
  </g>
  <g stroke-linecap="round" transform="translate(734 14.000000000000227) rotate(0 133.9999999999999 334.83333333333326)">
    <path
      d="M32 0 M32 0 C75.3 -0.16, 118.47 0.27, 236 0 M236 0 C257.96 1.39, 267.95 11.66, 268 32 M268 32 C270.19 263.56, 269.45 495.9, 268 637.67 M268 637.67 C267.37 657.9, 255.45 671.31, 236 669.67 M236 669.67 C159.18 668.64, 79.61 668, 32 669.67 M32 669.67 C12.52 669.32, 1.15 659.2, 0 637.67 M0 637.67 C2.89 447.81, 2.91 259.43, 0 32 M0 32 C1.91 11.84, 9.11 1.44, 32 0"
      stroke="#000000" stroke-width="1.5" fill="none" stroke-dasharray="1.5 7"></path>
  </g>
  <g transform="translate(79.66666666666686 33.66666666666697) rotate(0 58.5 17)">
    <text x="0" y="27" font-family="Cascadia, Segoe UI Emoji" font-size="28px" fill="#eee" text-anchor="start" style="white-space: pre;"
          direction="ltr">Browser
    </text>
  </g>
  <g transform="translate(471.66666666666674 39.66666666666697) rotate(0 50 17)">
    <text x="0" y="27" font-family="Cascadia, Segoe UI Emoji" font-size="28px" fill="#000000" text-anchor="start" style="white-space: pre;"
          direction="ltr">Fantom
    </text>
  </g>
  <g transform="translate(849.6666666666665 37.66666666666697) rotate(0 25.5 17)">
    <text x="0" y="27" font-family="Cascadia, Segoe UI Emoji" font-size="28px" fill="#000000" text-anchor="start" style="white-space: pre;"
          direction="ltr">AWS
    </text>
  </g>
  <g stroke-linecap="round">
    <g transform="translate(267.7378571428576 166.16151946268536) rotate(0 241.40118326247517 1.6764640296510578)">
      <path d="M0.57 1.12 C81.33 1.46, 402.9 2.65, 483.39 2.71 M-0.58 0.67 C80.07 0.6, 401.63 0.69, 482.14 1.01" stroke="#000000"
            stroke-width="1" fill="none"></path>
    </g>
    <g transform="translate(267.7378571428576 166.16151946268536) rotate(0 241.40118326247517 1.6764640296510578)">
      <path d="M455.8 10.28 C460.97 8.22, 464.65 6.12, 482.1 2.58 M453.52 12.07 C463.34 8.79, 472.33 4.34, 482.69 1.77" stroke="#000000"
            stroke-width="1" fill="none"></path>
    </g>
    <g transform="translate(267.7378571428576 166.16151946268536) rotate(0 241.40118326247517 1.6764640296510578)">
      <path d="M455.84 -10.24 C461.12 -8.11, 464.79 -6.03, 482.1 2.58 M453.55 -8.45 C463.32 -5.09, 472.3 -2.89, 482.69 1.77"
            stroke="#000000" stroke-width="1" fill="none"></path>
    </g>
  </g>
  <mask></mask>
  <g stroke-linecap="round">
    <g transform="translate(259.85404761904783 207.85119047619082) rotate(0 70.26399162170947 40.81290486916749)">
      <path d="M0.61 0.12 C24.23 13.68, 117.71 68.88, 141.06 82.49 M-0.53 -0.86 C23.09 12.88, 117.2 66.8, 140.67 80.8" stroke="#000000"
            stroke-width="1" fill="none"></path>
    </g>
    <g transform="translate(259.85404761904783 207.85119047619082) rotate(0 70.26399162170947 40.81290486916749)">
      <path d="M111.35 77.23 C119.72 77.78, 125.69 77.94, 138.82 80.85 M110.81 76.46 C121.73 77.31, 132.2 80.29, 141.03 81.38"
            stroke="#000000" stroke-width="1" fill="none"></path>
    </g>
    <g transform="translate(259.85404761904783 207.85119047619082) rotate(0 70.26399162170947 40.81290486916749)">
      <path d="M121.68 59.5 C127.72 64.4, 131.18 68.86, 138.82 80.85 M121.14 58.73 C128.25 66.03, 134.91 75.56, 141.03 81.38"
            stroke="#000000" stroke-width="1" fill="none"></path>
    </g>
  </g>
  <mask></mask>
  <g stroke-linecap="round">
    <g transform="translate(758.5326190476194 186.12150899378372) rotate(0 -58.4265601135794 26.911439827013044)">
      <path d="M0.75 1.05 C-18.83 9.53, -97.78 43.57, -117.61 52.06 M-0.31 0.55 C-19.49 9.69, -95.94 44.55, -115.22 53.27" stroke="#000000"
            stroke-width="1" fill="none"></path>
    </g>
    <g transform="translate(758.5326190476194 186.12150899378372) rotate(0 -58.4265601135794 26.911439827013044)">
      <path d="M-92.06 31.25 C-100.86 36.53, -107.27 45.64, -114.93 51.46 M-93.16 31.96 C-101.34 38.51, -107.48 45.84, -114.32 53.22"
            stroke="#000000" stroke-width="1" fill="none"></path>
    </g>
    <g transform="translate(758.5326190476194 186.12150899378372) rotate(0 -58.4265601135794 26.911439827013044)">
      <path d="M-83.56 49.92 C-95.03 49.81, -103.91 53.48, -114.93 51.46 M-84.67 50.64 C-95.68 51.14, -104.54 52.49, -114.32 53.22"
            stroke="#000000" stroke-width="1" fill="none"></path>
    </g>
  </g>
  <mask></mask>
  <g stroke-linecap="round">
    <g transform="translate(881.3574404773476 515.14880952381) rotate(0 -0.297504173311836 -29.829526787451613)">
      <path d="M0.59 -0.98 C0.65 -11.08, 0.09 -50.77, 0.02 -60.78 M-0.56 1.12 C-0.67 -8.83, -1.16 -49.43, -1.19 -59.65" stroke="#000000"
            stroke-width="1" fill="none"></path>
    </g>
    <g transform="translate(881.3574404773476 515.14880952381) rotate(0 -0.297504173311836 -29.829526787451613)">
      <path d="M7.67 -32.37 C5.22 -39.62, 1.99 -47.98, -0.36 -58.51 M9.09 -31.02 C4.73 -43.24, 1.27 -54.46, -1.48 -59.77" stroke="#000000"
            stroke-width="1" fill="none"></path>
    </g>
    <g transform="translate(881.3574404773476 515.14880952381) rotate(0 -0.297504173311836 -29.829526787451613)">
      <path d="M-12.85 -32.2 C-9.78 -39.59, -7.48 -48, -0.36 -58.51 M-11.43 -30.85 C-7.69 -43.03, -3.04 -54.32, -1.48 -59.77"
            stroke="#000000" stroke-width="1" fill="none"></path>
    </g>
  </g>
  <mask></mask>
  <g stroke-linecap="round">
    <g transform="translate(882.5100676650006 267.6340476190479) rotate(0 0.17692852101322387 21.730641552357486)">
      <path d="M0.92 0.27 C1.03 7.47, 0.4 36.73, 0.41 44.09 M-0.06 -0.63 C-0.08 6.15, -0.66 35.12, -0.57 42.34" stroke="#000000"
            stroke-width="1" fill="none"></path>
    </g>
    <g transform="translate(882.5100676650006 267.6340476190479) rotate(0 0.17692852101322387 21.730641552357486)">
      <path d="M-7.41 21.82 C-4.53 28.31, -1.91 32.46, 0.43 41.86 M-8.49 22.53 C-5.84 27.47, -3.88 33.56, -0.39 41.7" stroke="#000000"
            stroke-width="1" fill="none"></path>
    </g>
    <g transform="translate(882.5100676650006 267.6340476190479) rotate(0 0.17692852101322387 21.730641552357486)">
      <path d="M7.43 21.91 C6.22 28.49, 4.75 32.61, 0.43 41.86 M6.35 22.62 C4.57 27.55, 2.11 33.61, -0.39 41.7" stroke="#000000"
            stroke-width="1" fill="none"></path>
    </g>
  </g>
  <mask></mask>
  <g stroke-linecap="round">
    <g transform="translate(783.4895441366691 517.3540476190484) rotate(0 -103.72435561673058 -89.93358232905639)">
      <path d="M0.01 0.87 C-34.69 -29.16, -173.16 -148.77, -207.46 -179 M-1.45 0.29 C-35.81 -29.58, -171.03 -150.77, -205.13 -180.74"
            stroke="#000000" stroke-width="1" fill="none"></path>
    </g>
    <g transform="translate(783.4895441366691 517.3540476190484) rotate(0 -103.72435561673058 -89.93358232905639)">
      <path
        d="M-175.78 -170.9 C-186.14 -172.04, -198.6 -177.79, -205.34 -180.59 M-177.38 -169.94 C-186.66 -172.5, -195.27 -176.68, -204.7 -180.23"
        stroke="#000000" stroke-width="1" fill="none"></path>
    </g>
    <g transform="translate(783.4895441366691 517.3540476190484) rotate(0 -103.72435561673058 -89.93358232905639)">
      <path
        d="M-189.41 -155.56 C-195.03 -162.2, -202.61 -173.45, -205.34 -180.59 M-191.01 -154.6 C-196.17 -161.83, -200.6 -170.71, -204.7 -180.23"
        stroke="#000000" stroke-width="1" fill="none"></path>
    </g>
  </g>
  <mask></mask>
</svg>
